<svg width="114" height="24" viewBox="0 0 114 24" fill="none"
    xmlns="http://www.w3.org/2000/svg">
    <path d="M20.9999 6.73001C20.9799 6.73001 20.9499 6.73001 20.9199 6.73001C15.6299 6.20001 10.3499 6.00001 5.11992 6.53001L3.07992 6.73001C2.65992 6.77001 2.28992 6.47001 2.24992 6.05001C2.20992 5.63001 2.50992 5.27001 2.91992 5.23001L4.95992 5.03001C10.2799 4.49001 15.6699 4.70001 21.0699 5.23001C21.4799 5.27001 21.7799 5.64001 21.7399 6.05001C21.7099 6.44001 21.3799 6.73001 20.9999 6.73001Z" fill="#FF4949"/>
    <path d="M8.50001 5.72C8.46001 5.72 8.42001 5.72 8.37001 5.71C7.97001 5.64 7.69001 5.25 7.76001 4.85L7.98001 3.54C8.14001 2.58 8.36001 1.25 10.69 1.25H13.31C15.65 1.25 15.87 2.63 16.02 3.55L16.24 4.85C16.31 5.26 16.03 5.65 15.63 5.71C15.22 5.78 14.83 5.5 14.77 5.1L14.55 3.8C14.41 2.93 14.38 2.76 13.32 2.76H10.7C9.64001 2.76 9.62001 2.9 9.47001 3.79L9.24001 5.09C9.18001 5.46 8.86001 5.72 8.50001 5.72Z" fill="#FF4949"/>
    <path d="M15.2099 22.75H8.7899C5.2999 22.75 5.1599 20.82 5.0499 19.26L4.3999 9.19C4.3699 8.78 4.6899 8.42 5.0999 8.39C5.5199 8.37 5.8699 8.68 5.8999 9.09L6.5499 19.16C6.6599 20.68 6.6999 21.25 8.7899 21.25H15.2099C17.3099 21.25 17.3499 20.68 17.4499 19.16L18.0999 9.09C18.1299 8.68 18.4899 8.37 18.8999 8.39C19.3099 8.42 19.6299 8.77 19.5999 9.19L18.9499 19.26C18.8399 20.82 18.6999 22.75 15.2099 22.75Z" fill="#FF4949"/>
    <path d="M13.6601 17.25H10.3301C9.92008 17.25 9.58008 16.91 9.58008 16.5C9.58008 16.09 9.92008 15.75 10.3301 15.75H13.6601C14.0701 15.75 14.4101 16.09 14.4101 16.5C14.4101 16.91 14.0701 17.25 13.6601 17.25Z" fill="#FF4949"/>
    <path d="M14.5 13.25H9.5C9.09 13.25 8.75 12.91 8.75 12.5C8.75 12.09 9.09 11.75 9.5 11.75H14.5C14.91 11.75 15.25 12.09 15.25 12.5C15.25 12.91 14.91 13.25 14.5 13.25Z" fill="#FF4949"/>
    <path d="M46.328 12.272C46.328 13.1307 46.192 13.912 45.92 14.616C45.648 15.32 45.264 15.9227 44.768 16.424C44.272 16.9253 43.6773 17.3147 42.984 17.592C42.2907 17.864 41.5227 18 40.68 18H36.392V6.536H40.68C41.5227 6.536 42.2907 6.67467 42.984 6.952C43.6773 7.224 44.272 7.61333 44.768 8.12C45.264 8.62133 45.648 9.224 45.92 9.928C46.192 10.632 46.328 11.4133 46.328 12.272ZM44.736 12.272C44.736 11.568 44.64 10.9387 44.448 10.384C44.256 9.82933 43.984 9.36 43.632 8.976C43.28 8.592 42.8533 8.29867 42.352 8.096C41.8507 7.89333 41.2933 7.792 40.68 7.792H37.952V16.744H40.68C41.2933 16.744 41.8507 16.6427 42.352 16.44C42.8533 16.2373 43.28 15.9467 43.632 15.568C43.984 15.184 44.256 14.7147 44.448 14.16C44.64 13.6053 44.736 12.976 44.736 12.272ZM51.1029 9.768C51.5882 9.768 52.0362 9.85067 52.4469 10.016C52.8575 10.176 53.2122 10.4107 53.5109 10.72C53.8095 11.024 54.0415 11.4027 54.2069 11.856C54.3775 12.304 54.4629 12.816 54.4629 13.392C54.4629 13.616 54.4389 13.7653 54.3909 13.84C54.3429 13.9147 54.2522 13.952 54.1189 13.952H48.7269C48.7375 14.464 48.8069 14.9093 48.9349 15.288C49.0629 15.6667 49.2389 15.984 49.4629 16.24C49.6869 16.4907 49.9535 16.68 50.2629 16.808C50.5722 16.9307 50.9189 16.992 51.3029 16.992C51.6602 16.992 51.9669 16.952 52.2229 16.872C52.4842 16.7867 52.7082 16.696 52.8949 16.6C53.0815 16.504 53.2362 16.416 53.3589 16.336C53.4869 16.2507 53.5962 16.208 53.6869 16.208C53.8042 16.208 53.8949 16.2533 53.9589 16.344L54.3589 16.864C54.1829 17.0773 53.9722 17.264 53.7269 17.424C53.4815 17.5787 53.2175 17.7067 52.9349 17.808C52.6575 17.9093 52.3695 17.984 52.0709 18.032C51.7722 18.0853 51.4762 18.112 51.1829 18.112C50.6229 18.112 50.1055 18.0187 49.6309 17.832C49.1615 17.64 48.7535 17.3627 48.4069 17C48.0655 16.632 47.7989 16.1787 47.6069 15.64C47.4149 15.1013 47.3189 14.4827 47.3189 13.784C47.3189 13.2187 47.4042 12.6907 47.5749 12.2C47.7509 11.7093 48.0015 11.2853 48.3269 10.928C48.6522 10.5653 49.0495 10.2827 49.5189 10.08C49.9882 9.872 50.5162 9.768 51.1029 9.768ZM51.1349 10.816C50.4469 10.816 49.9055 11.016 49.5109 11.416C49.1162 11.8107 48.8709 12.36 48.7749 13.064H53.1829C53.1829 12.7333 53.1375 12.432 53.0469 12.16C52.9562 11.8827 52.8229 11.6453 52.6469 11.448C52.4709 11.2453 52.2549 11.0907 51.9989 10.984C51.7482 10.872 51.4602 10.816 51.1349 10.816ZM57.5495 6.216V18H56.1255V6.216H57.5495ZM62.9473 9.768C63.4326 9.768 63.8806 9.85067 64.2913 10.016C64.7019 10.176 65.0566 10.4107 65.3553 10.72C65.6539 11.024 65.8859 11.4027 66.0513 11.856C66.2219 12.304 66.3073 12.816 66.3073 13.392C66.3073 13.616 66.2833 13.7653 66.2353 13.84C66.1873 13.9147 66.0966 13.952 65.9633 13.952H60.5713C60.5819 14.464 60.6513 14.9093 60.7793 15.288C60.9073 15.6667 61.0833 15.984 61.3073 16.24C61.5313 16.4907 61.7979 16.68 62.1073 16.808C62.4166 16.9307 62.7633 16.992 63.1473 16.992C63.5046 16.992 63.8113 16.952 64.0673 16.872C64.3286 16.7867 64.5526 16.696 64.7393 16.6C64.9259 16.504 65.0806 16.416 65.2033 16.336C65.3313 16.2507 65.4406 16.208 65.5313 16.208C65.6486 16.208 65.7393 16.2533 65.8033 16.344L66.2033 16.864C66.0273 17.0773 65.8166 17.264 65.5713 17.424C65.3259 17.5787 65.0619 17.7067 64.7793 17.808C64.5019 17.9093 64.2139 17.984 63.9153 18.032C63.6166 18.0853 63.3206 18.112 63.0273 18.112C62.4673 18.112 61.9499 18.0187 61.4753 17.832C61.0059 17.64 60.5979 17.3627 60.2513 17C59.9099 16.632 59.6433 16.1787 59.4513 15.64C59.2593 15.1013 59.1633 14.4827 59.1633 13.784C59.1633 13.2187 59.2486 12.6907 59.4193 12.2C59.5953 11.7093 59.8459 11.2853 60.1713 10.928C60.4966 10.5653 60.8939 10.2827 61.3633 10.08C61.8326 9.872 62.3606 9.768 62.9473 9.768ZM62.9793 10.816C62.2913 10.816 61.7499 11.016 61.3553 11.416C60.9606 11.8107 60.7153 12.36 60.6193 13.064H65.0273C65.0273 12.7333 64.9819 12.432 64.8913 12.16C64.8006 11.8827 64.6673 11.6453 64.4913 11.448C64.3153 11.2453 64.0993 11.0907 63.8433 10.984C63.5926 10.872 63.3046 10.816 62.9793 10.816ZM70.2659 18.128C69.6259 18.128 69.1325 17.9493 68.7859 17.592C68.4445 17.2347 68.2739 16.72 68.2739 16.048V11.088H67.2979C67.2125 11.088 67.1405 11.064 67.0819 11.016C67.0232 10.9627 66.9939 10.8827 66.9939 10.776V10.208L68.3219 10.04L68.6499 7.536C68.6605 7.456 68.6952 7.392 68.7539 7.344C68.8125 7.29067 68.8872 7.264 68.9779 7.264H69.6979V10.056H72.0179V11.088H69.6979V15.952C69.6979 16.2933 69.7805 16.5467 69.9459 16.712C70.1112 16.8773 70.3245 16.96 70.5859 16.96C70.7352 16.96 70.8632 16.9413 70.9699 16.904C71.0819 16.8613 71.1779 16.816 71.2579 16.768C71.3379 16.72 71.4045 16.6773 71.4579 16.64C71.5165 16.5973 71.5672 16.576 71.6099 16.576C71.6845 16.576 71.7512 16.6213 71.8099 16.712L72.2259 17.392C71.9805 17.6213 71.6845 17.8027 71.3379 17.936C70.9912 18.064 70.6339 18.128 70.2659 18.128ZM76.6666 9.768C77.152 9.768 77.6 9.85067 78.0106 10.016C78.4213 10.176 78.776 10.4107 79.0746 10.72C79.3733 11.024 79.6053 11.4027 79.7706 11.856C79.9413 12.304 80.0266 12.816 80.0266 13.392C80.0266 13.616 80.0026 13.7653 79.9546 13.84C79.9066 13.9147 79.816 13.952 79.6826 13.952H74.2906C74.3013 14.464 74.3706 14.9093 74.4986 15.288C74.6266 15.6667 74.8026 15.984 75.0266 16.24C75.2506 16.4907 75.5173 16.68 75.8266 16.808C76.136 16.9307 76.4826 16.992 76.8666 16.992C77.224 16.992 77.5306 16.952 77.7866 16.872C78.048 16.7867 78.272 16.696 78.4586 16.6C78.6453 16.504 78.8 16.416 78.9226 16.336C79.0506 16.2507 79.16 16.208 79.2506 16.208C79.368 16.208 79.4586 16.2533 79.5226 16.344L79.9226 16.864C79.7466 17.0773 79.536 17.264 79.2906 17.424C79.0453 17.5787 78.7813 17.7067 78.4986 17.808C78.2213 17.9093 77.9333 17.984 77.6346 18.032C77.336 18.0853 77.04 18.112 76.7466 18.112C76.1866 18.112 75.6693 18.0187 75.1946 17.832C74.7253 17.64 74.3173 17.3627 73.9706 17C73.6293 16.632 73.3626 16.1787 73.1706 15.64C72.9786 15.1013 72.8826 14.4827 72.8826 13.784C72.8826 13.2187 72.968 12.6907 73.1386 12.2C73.3146 11.7093 73.5653 11.2853 73.8906 10.928C74.216 10.5653 74.6133 10.2827 75.0826 10.08C75.552 9.872 76.08 9.768 76.6666 9.768ZM76.6986 10.816C76.0106 10.816 75.4693 11.016 75.0746 11.416C74.68 11.8107 74.4346 12.36 74.3386 13.064H78.7466C78.7466 12.7333 78.7013 12.432 78.6106 12.16C78.52 11.8827 78.3866 11.6453 78.2106 11.448C78.0346 11.2453 77.8186 11.0907 77.5626 10.984C77.312 10.872 77.024 10.816 76.6986 10.816ZM92.335 6.536V7.84H88.631V18H87.079V7.84H83.359V6.536H92.335ZM97.3725 18H96.7405C96.6018 18 96.4898 17.9787 96.4045 17.936C96.3192 17.8933 96.2632 17.8027 96.2365 17.664L96.0765 16.912C95.8632 17.104 95.6552 17.2773 95.4525 17.432C95.2498 17.5813 95.0365 17.7093 94.8125 17.816C94.5885 17.9173 94.3485 17.9947 94.0925 18.048C93.8418 18.1013 93.5618 18.128 93.2525 18.128C92.9378 18.128 92.6418 18.0853 92.3645 18C92.0925 17.9093 91.8552 17.776 91.6525 17.6C91.4498 17.424 91.2872 17.2027 91.1645 16.936C91.0472 16.664 90.9885 16.344 90.9885 15.976C90.9885 15.656 91.0765 15.3493 91.2525 15.056C91.4285 14.7573 91.7112 14.4933 92.1005 14.264C92.4952 14.0347 93.0098 13.848 93.6445 13.704C94.2792 13.5547 95.0552 13.4693 95.9725 13.448V12.816C95.9725 12.1867 95.8365 11.712 95.5645 11.392C95.2978 11.0667 94.9005 10.904 94.3725 10.904C94.0258 10.904 93.7325 10.9493 93.4925 11.04C93.2578 11.1253 93.0525 11.224 92.8765 11.336C92.7058 11.4427 92.5565 11.5413 92.4285 11.632C92.3058 11.7173 92.1832 11.76 92.0605 11.76C91.9645 11.76 91.8792 11.736 91.8045 11.688C91.7352 11.6347 91.6792 11.5707 91.6365 11.496L91.3805 11.04C91.8285 10.608 92.3112 10.2853 92.8285 10.072C93.3458 9.85867 93.9192 9.752 94.5485 9.752C95.0018 9.752 95.4045 9.82667 95.7565 9.976C96.1085 10.1253 96.4045 10.3333 96.6445 10.6C96.8845 10.8667 97.0658 11.1893 97.1885 11.568C97.3112 11.9467 97.3725 12.3627 97.3725 12.816V18ZM93.6765 17.128C93.9272 17.128 94.1565 17.104 94.3645 17.056C94.5725 17.0027 94.7672 16.9307 94.9485 16.84C95.1352 16.744 95.3112 16.6293 95.4765 16.496C95.6472 16.3627 95.8125 16.2107 95.9725 16.04V14.352C95.3165 14.3733 94.7592 14.4267 94.3005 14.512C93.8418 14.592 93.4685 14.6987 93.1805 14.832C92.8925 14.9653 92.6818 15.1227 92.5485 15.304C92.4205 15.4853 92.3565 15.688 92.3565 15.912C92.3565 16.1253 92.3912 16.3093 92.4605 16.464C92.5298 16.6187 92.6232 16.7467 92.7405 16.848C92.8578 16.944 92.9965 17.016 93.1565 17.064C93.3165 17.1067 93.4898 17.128 93.6765 17.128ZM103.85 11.232C103.786 11.3493 103.687 11.408 103.554 11.408C103.474 11.408 103.383 11.3787 103.282 11.32C103.181 11.2613 103.055 11.1973 102.906 11.128C102.762 11.0533 102.589 10.9867 102.386 10.928C102.183 10.864 101.943 10.832 101.666 10.832C101.426 10.832 101.21 10.864 101.018 10.928C100.826 10.9867 100.661 11.0693 100.522 11.176C100.389 11.2827 100.285 11.408 100.21 11.552C100.141 11.6907 100.106 11.8427 100.106 12.008C100.106 12.216 100.165 12.3893 100.282 12.528C100.405 12.6667 100.565 12.7867 100.762 12.888C100.959 12.9893 101.183 13.08 101.434 13.16C101.685 13.2347 101.941 13.3173 102.202 13.408C102.469 13.4933 102.727 13.5893 102.978 13.696C103.229 13.8027 103.453 13.936 103.65 14.096C103.847 14.256 104.005 14.4533 104.122 14.688C104.245 14.9173 104.306 15.1947 104.306 15.52C104.306 15.8933 104.239 16.24 104.106 16.56C103.973 16.8747 103.775 17.1493 103.514 17.384C103.253 17.6133 102.933 17.7947 102.554 17.928C102.175 18.0613 101.738 18.128 101.242 18.128C100.677 18.128 100.165 18.0373 99.7059 17.856C99.2472 17.6693 98.8579 17.432 98.5379 17.144L98.8739 16.6C98.9165 16.5307 98.9672 16.4773 99.0259 16.44C99.0845 16.4027 99.1619 16.384 99.2579 16.384C99.3539 16.384 99.4552 16.4213 99.5619 16.496C99.6685 16.5707 99.7965 16.6533 99.9459 16.744C100.101 16.8347 100.285 16.9173 100.498 16.992C100.717 17.0667 100.989 17.104 101.314 17.104C101.591 17.104 101.834 17.0693 102.042 17C102.25 16.9253 102.423 16.8267 102.562 16.704C102.701 16.5813 102.802 16.44 102.866 16.28C102.935 16.12 102.97 15.9493 102.97 15.768C102.97 15.544 102.909 15.36 102.786 15.216C102.669 15.0667 102.511 14.9413 102.314 14.84C102.117 14.7333 101.89 14.6427 101.634 14.568C101.383 14.488 101.125 14.4053 100.858 14.32C100.597 14.2347 100.338 14.1387 100.082 14.032C99.8312 13.92 99.6072 13.7813 99.4099 13.616C99.2125 13.4507 99.0525 13.248 98.9299 13.008C98.8125 12.7627 98.7539 12.4667 98.7539 12.12C98.7539 11.8107 98.8179 11.5147 98.9459 11.232C99.0739 10.944 99.2605 10.6933 99.5059 10.48C99.7512 10.2613 100.053 10.088 100.41 9.96C100.767 9.832 101.175 9.768 101.634 9.768C102.167 9.768 102.645 9.85333 103.066 10.024C103.493 10.1893 103.861 10.4187 104.17 10.712L103.85 11.232ZM107.307 6.216V13.152H107.675C107.782 13.152 107.87 13.1387 107.939 13.112C108.009 13.08 108.086 13.0187 108.171 12.928L110.731 10.184C110.811 10.0987 110.891 10.0293 110.971 9.976C111.051 9.92267 111.158 9.896 111.291 9.896H112.587L109.603 13.072C109.529 13.1627 109.454 13.2427 109.379 13.312C109.31 13.3813 109.23 13.4427 109.139 13.496C109.235 13.56 109.321 13.6347 109.395 13.72C109.475 13.8 109.55 13.8933 109.619 14L112.787 18H111.507C111.39 18 111.289 17.9787 111.203 17.936C111.123 17.888 111.046 17.816 110.971 17.72L108.307 14.4C108.227 14.288 108.147 14.216 108.067 14.184C107.987 14.1467 107.867 14.128 107.707 14.128H107.307V18H105.875V6.216H107.307Z" fill="#FF4949"/>
</svg>
